<svg xmlns="http://www.w3.org/2000/svg" viewBox="0 0 200 200" fill="none">
  <defs>
    <radialGradient id="goldRad" cx="50%" cy="45%" r="55%">
      <stop offset="0%" stop-color="#F5D98A"></stop>
      <stop offset="55%" stop-color="#C9A24A"></stop>
      <stop offset="100%" stop-color="#8C6A28"></stop>
    </radialGradient>
    <linearGradient id="goldLin" x1="0" y1="0" x2="1" y2="1">
      <stop offset="0%" stop-color="#E9C778"></stop>
      <stop offset="50%" stop-color="#C9A24A"></stop>
      <stop offset="100%" stop-color="#8C6A28"></stop>
    </linearGradient>
  </defs>
  <g transform="translate(100 100)" stroke="url(#goldLin)" stroke-width="1.2" stroke-linecap="round">
    
    <ellipse cx="0" cy="0" rx="78" ry="78" fill="none" opacity="0.9"></ellipse>
    <ellipse cx="0" cy="0" rx="78" ry="30" fill="none" opacity="0.85"></ellipse>
    <ellipse cx="0" cy="0" rx="78" ry="55" fill="none" opacity="0.7"></ellipse>
    <ellipse cx="0" cy="0" rx="60" ry="78" fill="none" opacity="0.85"></ellipse>
    <ellipse cx="0" cy="0" rx="30" ry="78" fill="none" opacity="0.85"></ellipse>
    <ellipse cx="0" cy="0" rx="78" ry="78" fill="none" transform="rotate(30)" opacity="0.5"></ellipse>
    <ellipse cx="0" cy="0" rx="78" ry="78" fill="none" transform="rotate(-30)" opacity="0.5"></ellipse>
    
    <line x1="-78" y1="0" x2="78" y2="0" opacity="0.9"></line>
    <line x1="0" y1="-78" x2="0" y2="78" opacity="0.9"></line>
  </g>
  
  <g fill="url(#goldRad)">
    <circle cx="100" cy="22" r="2.6"></circle>
    <circle cx="100" cy="178" r="2.6"></circle>
    <circle cx="22" cy="100" r="2.6"></circle>
    <circle cx="178" cy="100" r="2.6"></circle>
    <circle cx="45" cy="55" r="2.2"></circle>
    <circle cx="155" cy="55" r="2.2"></circle>
    <circle cx="45" cy="145" r="2.2"></circle>
    <circle cx="155" cy="145" r="2.2"></circle>
    <circle cx="70" cy="35" r="1.8"></circle>
    <circle cx="130" cy="35" r="1.8"></circle>
    <circle cx="70" cy="165" r="1.8"></circle>
    <circle cx="130" cy="165" r="1.8"></circle>
    <circle cx="35" cy="78" r="1.8"></circle>
    <circle cx="165" cy="78" r="1.8"></circle>
    <circle cx="35" cy="122" r="1.8"></circle>
    <circle cx="165" cy="122" r="1.8"></circle>
    <circle cx="100" cy="100" r="2.4"></circle>
    <circle cx="62" cy="100" r="1.6"></circle>
    <circle cx="138" cy="100" r="1.6"></circle>
    <circle cx="100" cy="62" r="1.6"></circle>
    <circle cx="100" cy="138" r="1.6"></circle>
  </g>
</svg>